<!-- Generated by IcoMoon.io -->
<svg version="1.1" xmlns="http://www.w3.org/2000/svg" width="1024" height="1024" viewBox="0 0 1024 1024">
<title></title>
<g id="icomoon-ignore">
</g>
<path fill="#000" d="M512 288v0 0c288 0 416 224 416 224s-128 224-416 224c-288 0-416-224-416-224s128-224 416-224zM512 320c-256 0-377.602 192-377.602 192s121.602 192 377.602 192c256 0 377.602-192 377.602-192s-121.602-192-377.602-192v0 0zM512 640v0 0c-70.692 0-128-57.308-128-128s57.308-128 128-128c70.692 0 128 57.308 128 128s-57.308 128-128 128zM512 608c53.019 0 96-42.981 96-96s-42.981-96-96-96c-53.019 0-96 42.981-96 96s42.981 96 96 96v0 0zM512 544c17.673 0 32-14.327 32-32s-14.327-32-32-32c-17.673 0-32 14.327-32 32s14.327 32 32 32v0 0z"></path>
</svg>
